<svg xmlns="http://www.w3.org/2000/svg" viewBox="0 0 512 512" role="img" aria-label="Tivals AI"><defs><linearGradient id="bg" x1="0" y1="0" x2="1" y2="1"><stop stop-color="#07162d"/><stop offset="1" stop-color="#0b2c57"/></linearGradient><linearGradient id="ring" x1="0" y1="0" x2="1" y2="1"><stop stop-color="#2468ff"/><stop offset=".52" stop-color="#20c9ff"/><stop offset="1" stop-color="#8b5cff"/></linearGradient></defs><rect width="512" height="512" rx="118" fill="url(#bg)"/><circle cx="256" cy="256" r="181" fill="none" stroke="url(#ring)" stroke-width="30"/><path d="M154 224c0-62 45-111 102-111s102 49 102 111v87c0 54-43 98-96 98h-12c-53 0-96-44-96-98z" fill="#07111f" stroke="#36c9ff" stroke-width="12"/><path d="M180 219c22-31 48-46 76-46s54 15 76 46" fill="none" stroke="#7d70ff" stroke-width="13" stroke-linecap="round"/><rect x="187" y="237" width="53" height="27" rx="14" fill="#32d8ff"/><rect x="272" y="237" width="53" height="27" rx="14" fill="#32d8ff"/><path d="M213 318c25 20 61 20 86 0" fill="none" stroke="#8b78ff" stroke-width="12" stroke-linecap="round"/><path d="M137 251v70c0 25 16 45 39 52M375 251v70c0 25-16 45-39 52" fill="none" stroke="#2ebeff" stroke-width="19" stroke-linecap="round"/><circle cx="256" cy="94" r="12" fill="#41d7ff"/><path d="M256 106v32" stroke="#41d7ff" stroke-width="9" stroke-linecap="round"/></svg>